<svg xmlns="http://www.w3.org/2000/svg" viewBox="0 0 1510 700" font-family="Arial"><rect width="1510" height="700" fill="#ffffff"/><text x="40" y="26" font-size="19" font-weight="bold" fill="#1F4E78">WundCheck app — detailed process of one daily check (BPMN): validation, worst-first decision logic, FHIR transmission</text><rect x="40" y="40" width="1440" height="630" fill="none" stroke="#334155" stroke-width="2"/><rect x="40" y="40" width="34" height="170" fill="#eaf1f8" stroke="#334155" stroke-width="1.2"/><line x1="40" y1="40" x2="1480" y2="40" stroke="#94a3b8" stroke-width="1"/><text x="57.0" y="125.0" font-size="13" font-weight="bold" fill="#1F4E78" text-anchor="middle" transform="rotate(-90 57.0 125.0)">Patient</text><rect x="40" y="210" width="34" height="460" fill="#eaf1f8" stroke="#334155" stroke-width="1.2"/><line x1="40" y1="210" x2="1480" y2="210" stroke="#94a3b8" stroke-width="1"/><text x="57.0" y="440.0" font-size="13" font-weight="bold" fill="#1F4E78" text-anchor="middle" transform="rotate(-90 57.0 440.0)">WundCheck app (CDSS)</text><defs><marker id="arr" viewBox="0 0 10 10" refX="9" refY="5" markerWidth="7" markerHeight="7" orient="auto-start-reverse"><path d="M0,0 L10,5 L0,10 z" fill="#334155"/></marker></defs><polyline points="96,140 150,140" fill="none" stroke="#334155" stroke-width="1.6" marker-end="url(#arr)"/><polyline points="172,118 172,78 250,78" fill="none" stroke="#334155" stroke-width="1.6" marker-end="url(#arr)"/><rect x="156.0" y="89.0" width="34" height="16" rx="4" fill="#fff" opacity="0.92"/><text x="173.0" y="98.0" font-size="12" font-family="Arial" font-weight="bold" text-anchor="middle" fill="#1e8449" dominant-baseline="middle">yes</text><polyline points="194,140 470,143" fill="none" stroke="#334155" stroke-width="1.6" marker-end="url(#arr)"/><rect x="316.0" y="132.5" width="34" height="16" rx="4" fill="#fff" opacity="0.92"/><text x="333.0" y="141.5" font-size="12" font-family="Arial" font-weight="bold" text-anchor="middle" fill="#64748b" dominant-baseline="middle">no</text><polyline points="400,78 545,78 545,112" fill="none" stroke="#334155" stroke-width="1.6" marker-end="url(#arr)"/><polyline points="545,174 545,243 555,243 555,255" fill="none" stroke="#334155" stroke-width="1.6" marker-end="url(#arr)"/><polyline points="640,290 690,290" fill="none" stroke="#334155" stroke-width="1.6" marker-end="url(#arr)"/><polyline points="712,268 712,120 720,120 720,106" fill="none" stroke="#334155" stroke-width="1.6" marker-end="url(#arr)"/><rect x="696.0" y="185.0" width="34" height="16" rx="4" fill="#fff" opacity="0.92"/><text x="713.0" y="194.0" font-size="12" font-family="Arial" font-weight="bold" text-anchor="middle" fill="#64748b" dominant-baseline="middle">no</text><polyline points="650,78 450,78 450,290 470,290" fill="none" stroke="#334155" stroke-width="1.6" marker-end="url(#arr)"/><polyline points="734,290 790,290" fill="none" stroke="#334155" stroke-width="1.6" marker-end="url(#arr)"/><rect x="746.0" y="271.0" width="34" height="16" rx="4" fill="#fff" opacity="0.92"/><text x="763.0" y="280.0" font-size="12" font-family="Arial" font-weight="bold" text-anchor="middle" fill="#1e8449" dominant-baseline="middle">yes</text><polyline points="950,290 970,290" fill="none" stroke="#334155" stroke-width="1.6" marker-end="url(#arr)"/><polyline points="992,312 992,390" fill="none" stroke="#334155" stroke-width="1.6" marker-end="url(#arr)"/><rect x="976.0" y="342.0" width="34" height="16" rx="4" fill="#fff" opacity="0.92"/><text x="993.0" y="351.0" font-size="12" font-family="Arial" font-weight="bold" text-anchor="middle" fill="#1e8449" dominant-baseline="middle">yes</text><polyline points="1014,290 1100,290" fill="none" stroke="#334155" stroke-width="1.6" marker-end="url(#arr)"/><rect x="1041.0" y="271.0" width="34" height="16" rx="4" fill="#fff" opacity="0.92"/><text x="1058.0" y="280.0" font-size="12" font-family="Arial" font-weight="bold" text-anchor="middle" fill="#64748b" dominant-baseline="middle">no</text><polyline points="1122,312 1122,390" fill="none" stroke="#334155" stroke-width="1.6" marker-end="url(#arr)"/><rect x="1106.0" y="342.0" width="34" height="16" rx="4" fill="#fff" opacity="0.92"/><text x="1123.0" y="351.0" font-size="12" font-family="Arial" font-weight="bold" text-anchor="middle" fill="#1e8449" dominant-baseline="middle">yes</text><polyline points="1144,290 1230,290" fill="none" stroke="#334155" stroke-width="1.6" marker-end="url(#arr)"/><rect x="1171.0" y="271.0" width="34" height="16" rx="4" fill="#fff" opacity="0.92"/><text x="1188.0" y="280.0" font-size="12" font-family="Arial" font-weight="bold" text-anchor="middle" fill="#64748b" dominant-baseline="middle">no</text><polyline points="1252,312 1252,390" fill="none" stroke="#334155" stroke-width="1.6" marker-end="url(#arr)"/><rect x="1236.0" y="342.0" width="34" height="16" rx="4" fill="#fff" opacity="0.92"/><text x="1253.0" y="351.0" font-size="12" font-family="Arial" font-weight="bold" text-anchor="middle" fill="#1e8449" dominant-baseline="middle">yes</text><polyline points="1274,290 1405,290 1405,390" fill="none" stroke="#334155" stroke-width="1.6" marker-end="url(#arr)"/><rect x="1323.5" y="271.0" width="34" height="16" rx="4" fill="#fff" opacity="0.92"/><text x="1340.5" y="280.0" font-size="12" font-family="Arial" font-weight="bold" text-anchor="middle" fill="#64748b" dominant-baseline="middle">no</text><polyline points="985,446 985,516 1115,516 1115,500" fill="none" stroke="#334155" stroke-width="1.6" marker-end="url(#arr)"/><polyline points="1125,446 1125,486 1135,486 1135,500" fill="none" stroke="#334155" stroke-width="1.6" marker-end="url(#arr)"/><polyline points="1265,446 1265,486 1155,486 1155,500" fill="none" stroke="#334155" stroke-width="1.6" marker-end="url(#arr)"/><polyline points="1405,446 1405,486 1175,486 1175,500" fill="none" stroke="#334155" stroke-width="1.6" marker-end="url(#arr)"/><polyline points="1145,556 1145,585" fill="none" stroke="#334155" stroke-width="1.6" marker-end="url(#arr)"/><polyline points="1230,616 1300,616" fill="none" stroke="#334155" stroke-width="1.6" marker-end="url(#arr)"/><circle cx="78.0" cy="140.0" r="18.0" fill="#e8f6ee" stroke="#1e8449" stroke-width="1.8"/><text x="78.0" y="167.25" font-size="12" font-family="Arial" font-weight="normal" text-anchor="middle" fill="#1a2733" dominant-baseline="middle">Open</text><text x="78.0" y="180.75" font-size="12" font-family="Arial" font-weight="normal" text-anchor="middle" fill="#1a2733" dominant-baseline="middle">app</text><polygon points="172.0,118 194,140.0 172.0,162 150,140.0" fill="#fdf6e3" stroke="#b7950b" stroke-width="1.8"/><text x="172.0" y="140.0" font-size="19" font-family="Arial" font-weight="bold" text-anchor="middle" fill="#b7950b" dominant-baseline="middle">X</text><text x="172.0" y="182.0" font-size="12" font-family="Arial" font-weight="bold" text-anchor="middle" fill="#1a2733" dominant-baseline="middle">First use?</text><rect x="250" y="50" width="150" height="56" rx="10" fill="#eaf1f8" stroke="#334155" stroke-width="1.6"/><text x="257" y="64" font-size="10">👤</text><text x="325.0" y="73.25" font-size="12" font-family="Arial" font-weight="normal" text-anchor="middle" fill="#1a2733" dominant-baseline="middle">Capture baseline data</text><text x="325.0" y="86.75" font-size="12" font-family="Arial" font-weight="normal" text-anchor="middle" fill="#1a2733" dominant-baseline="middle">&amp; risk factors (once)</text><rect x="470" y="112" width="150" height="62" rx="10" fill="#eaf1f8" stroke="#334155" stroke-width="1.6"/><text x="477" y="126" font-size="10">👤</text><text x="545.0" y="138.25" font-size="12" font-family="Arial" font-weight="normal" text-anchor="middle" fill="#1a2733" dominant-baseline="middle">Complete daily check</text><text x="545.0" y="151.75" font-size="12" font-family="Arial" font-weight="normal" text-anchor="middle" fill="#1a2733" dominant-baseline="middle">(values + tap images)</text><rect x="650" y="50" width="140" height="56" rx="10" fill="#eaf1f8" stroke="#334155" stroke-width="1.6"/><text x="657" y="64" font-size="10">👤</text><text x="720.0" y="73.25" font-size="12" font-family="Arial" font-weight="normal" text-anchor="middle" fill="#1a2733" dominant-baseline="middle">Correct</text><text x="720.0" y="86.75" font-size="12" font-family="Arial" font-weight="normal" text-anchor="middle" fill="#1a2733" dominant-baseline="middle">inputs</text><rect x="470" y="255" width="170" height="70" rx="10" fill="#f5f7fa" stroke="#334155" stroke-width="1.6"/><text x="477" y="269" font-size="10">⚙</text><text x="555.0" y="278.5" font-size="12" font-family="Arial" font-weight="normal" text-anchor="middle" fill="#1a2733" dominant-baseline="middle">Validate: constraints,</text><text x="555.0" y="292.0" font-size="12" font-family="Arial" font-weight="normal" text-anchor="middle" fill="#1a2733" dominant-baseline="middle">mandatory fields; compute</text><text x="555.0" y="305.5" font-size="12" font-family="Arial" font-weight="normal" text-anchor="middle" fill="#1a2733" dominant-baseline="middle">derived values</text><polygon points="712.0,268 734,290.0 712.0,312 690,290.0" fill="#fdf6e3" stroke="#b7950b" stroke-width="1.8"/><text x="712.0" y="290.0" font-size="19" font-family="Arial" font-weight="bold" text-anchor="middle" fill="#b7950b" dominant-baseline="middle">X</text><text x="712.0" y="332.0" font-size="12" font-family="Arial" font-weight="bold" text-anchor="middle" fill="#1a2733" dominant-baseline="middle">Valid &amp;</text><text x="712.0" y="345.5" font-size="12" font-family="Arial" font-weight="bold" text-anchor="middle" fill="#1a2733" dominant-baseline="middle">complete?</text><rect x="790" y="259" width="160" height="62" rx="10" fill="#fdf6e3" stroke="#334155" stroke-width="1.6"/><text x="797" y="273" font-size="10">▦</text><text x="870.0" y="285.25" font-size="12" font-family="Arial" font-weight="normal" text-anchor="middle" fill="#1a2733" dominant-baseline="middle">Evaluate decision table</text><text x="870.0" y="298.75" font-size="12" font-family="Arial" font-weight="normal" text-anchor="middle" fill="#1a2733" dominant-baseline="middle">from L3 (worst-first)</text><polygon points="992.0,268 1014,290.0 992.0,312 970,290.0" fill="#fdf6e3" stroke="#b7950b" stroke-width="1.8"/><text x="992.0" y="290.0" font-size="19" font-family="Arial" font-weight="bold" text-anchor="middle" fill="#b7950b" dominant-baseline="middle">X</text><text x="992.0" y="237.25" font-size="12" font-family="Arial" font-weight="bold" text-anchor="middle" fill="#1a2733" dominant-baseline="middle">Emergency?</text><text x="992.0" y="250.75" font-size="12" font-family="Arial" font-weight="bold" text-anchor="middle" fill="#1a2733" dominant-baseline="middle">(R1–R3)</text><polygon points="1122.0,268 1144,290.0 1122.0,312 1100,290.0" fill="#fdf6e3" stroke="#b7950b" stroke-width="1.8"/><text x="1122.0" y="290.0" font-size="19" font-family="Arial" font-weight="bold" text-anchor="middle" fill="#b7950b" dominant-baseline="middle">X</text><text x="1122.0" y="237.25" font-size="12" font-family="Arial" font-weight="bold" text-anchor="middle" fill="#1a2733" dominant-baseline="middle">Suspected</text><text x="1122.0" y="250.75" font-size="12" font-family="Arial" font-weight="bold" text-anchor="middle" fill="#1a2733" dominant-baseline="middle">infection? (R4–R5, R9)</text><polygon points="1252.0,268 1274,290.0 1252.0,312 1230,290.0" fill="#fdf6e3" stroke="#b7950b" stroke-width="1.8"/><text x="1252.0" y="290.0" font-size="19" font-family="Arial" font-weight="bold" text-anchor="middle" fill="#b7950b" dominant-baseline="middle">X</text><text x="1252.0" y="237.25" font-size="12" font-family="Arial" font-weight="bold" text-anchor="middle" fill="#1a2733" dominant-baseline="middle">Abnormal?</text><text x="1252.0" y="250.75" font-size="12" font-family="Arial" font-weight="bold" text-anchor="middle" fill="#1a2733" dominant-baseline="middle">(R6a–R7, R10)</text><rect x="920" y="390" width="130" height="56" rx="10" fill="#fdecea" stroke="#c0392b" stroke-width="1.6"/><text x="927" y="404" font-size="10">⚙</text><text x="985.0" y="413.25" font-size="12" font-family="Arial" font-weight="normal" text-anchor="middle" fill="#1a2733" dominant-baseline="middle">Show RED</text><text x="985.0" y="426.75" font-size="12" font-family="Arial" font-weight="normal" text-anchor="middle" fill="#1a2733" dominant-baseline="middle">+ alert to practice</text><rect x="1060" y="390" width="130" height="56" rx="10" fill="#fdf1e3" stroke="#d97706" stroke-width="1.6"/><text x="1067" y="404" font-size="10">⚙</text><text x="1125.0" y="413.25" font-size="12" font-family="Arial" font-weight="normal" text-anchor="middle" fill="#1a2733" dominant-baseline="middle">Show ORANGE</text><text x="1125.0" y="426.75" font-size="12" font-family="Arial" font-weight="normal" text-anchor="middle" fill="#1a2733" dominant-baseline="middle">+ alert to practice</text><rect x="1200" y="390" width="130" height="56" rx="10" fill="#fbf6dc" stroke="#b7950b" stroke-width="1.6"/><text x="1207" y="404" font-size="10">⚙</text><text x="1265.0" y="413.25" font-size="12" font-family="Arial" font-weight="normal" text-anchor="middle" fill="#1a2733" dominant-baseline="middle">Show YELLOW</text><text x="1265.0" y="426.75" font-size="12" font-family="Arial" font-weight="normal" text-anchor="middle" fill="#1a2733" dominant-baseline="middle">(monitor)</text><rect x="1340" y="390" width="130" height="56" rx="10" fill="#e8f6ee" stroke="#1e8449" stroke-width="1.6"/><text x="1347" y="404" font-size="10">⚙</text><text x="1405.0" y="413.25" font-size="12" font-family="Arial" font-weight="normal" text-anchor="middle" fill="#1a2733" dominant-baseline="middle">Show GREEN</text><text x="1405.0" y="426.75" font-size="12" font-family="Arial" font-weight="normal" text-anchor="middle" fill="#1a2733" dominant-baseline="middle">(R8, catch-all)</text><rect x="1060" y="500" width="170" height="56" rx="10" fill="#f5f7fa" stroke="#334155" stroke-width="1.6"/><text x="1067" y="514" font-size="10">⚙</text><text x="1145.0" y="523.25" font-size="12" font-family="Arial" font-weight="normal" text-anchor="middle" fill="#1a2733" dominant-baseline="middle">Add info notes</text><text x="1145.0" y="536.75" font-size="12" font-family="Arial" font-weight="normal" text-anchor="middle" fill="#1a2733" dominant-baseline="middle">(I1–I5, non-exclusive)</text><rect x="1060" y="585" width="170" height="62" rx="10" fill="#eef2ff" stroke="#334155" stroke-width="1.6"/><text x="1067" y="599" font-size="10">⚙</text><text x="1145.0" y="604.5" font-size="12" font-family="Arial" font-weight="normal" text-anchor="middle" fill="#1a2733" dominant-baseline="middle">Generate FHIR bundle &amp;</text><text x="1145.0" y="618.0" font-size="12" font-family="Arial" font-weight="normal" text-anchor="middle" fill="#1a2733" dominant-baseline="middle">transmit to record</text><text x="1145.0" y="631.5" font-size="12" font-family="Arial" font-weight="normal" text-anchor="middle" fill="#1a2733" dominant-baseline="middle">(QResponse + Observation)</text><circle cx="1318.0" cy="616.0" r="18.0" fill="#fdecea" stroke="#c0392b" stroke-width="3.5"/><text x="1318.0" y="643.25" font-size="12" font-family="Arial" font-weight="normal" text-anchor="middle" fill="#1a2733" dominant-baseline="middle">Check</text><text x="1318.0" y="656.75" font-size="12" font-family="Arial" font-weight="normal" text-anchor="middle" fill="#1a2733" dominant-baseline="middle">saved</text><text x="40" y="692" font-size="10" fill="#64748b">Gateway cascade = decision logic in worst-first order (safety principle): emergency before suspected infection before abnormal; GREEN only as catch-all. Editable source: workflow-app-detail.bpmn</text></svg>